# xmcd
#
# Track frame offsets: 
#        150
#        23748
#        41698
#        64582
#        86214
#        104134
#        119379
#        135445
#        159277
#        178292
#        195801
#        213490
#        230226
#        244586
#        263689
#        281226
#        296369
#        312436
#        330117
#        346227
#
# Disc length: 4799 seconds
#
# Revision: 0
# Processed by: cddbd v1.5.2PL0 Copyright (c) Steve Scherf et al.
# Submitted via: ExactAudioCopy v0.99pb4
#
DISCID=2312bd14
DTITLE=Various Artist - prevue promo 1116A-3
DYEAR=2003
DGENRE=pop
TTITLE0=Nnenna Freelon - Ooh Child
TTITLE1=Joan Osborne - I'll Be Around
TTITLE2=En Vogue - How Deep Is Your Love
TTITLE3=Dionne Warwick - What The World Needs Now Is Love
TTITLE4=Trapt - Headstrong
TTITLE5=Sarai - Ladies
TTITLE6=Syleena Johnson - Faithful To You
TTITLE7=Buddy Guy feat Eric Clapton and B.B. King - Crawlin' Kingsnake
TTITLE8=Boyd Tinsley - Listen
TTITLE9=Pete Francis - One Train
TTITLE10=Cheap Trick - Scent Of A Woman(Edit)
TTITLE11=Lynyrd Skynyrd feat. Kid Rock - Gimme Back My Bullets
TTITLE12=Yellowcard - Underdog
TTITLE13=Led Zeppelin - Ocean, The(Live Album Version - Applause Tag)
TTITLE14=Soundtrack Of Our Lives, The - Infra Riot
TTITLE15=hed Planet Earth (hed) Planet Earth - Other Side(Modern Edit)
TTITLE16=hed Planet Earth (hed) Planet Earth - Other Side(Rock Edit)
TTITLE17=Jane's Addiction - Just Because
TTITLE18=Evanescence - Going Under
TTITLE19=Matt Nathanson - LaidLyric  Movie "American Pie 3")
EXTD=
EXTT0=
EXTT1=
EXTT2=
EXTT3=
EXTT4=
EXTT5=
EXTT6=
EXTT7=
EXTT8=
EXTT9=
EXTT10=
EXTT11=
EXTT12=
EXTT13=
EXTT14=
EXTT15=
EXTT16=
EXTT17=
EXTT18=
EXTT19=
PLAYORDER=
